<svg xmlns="http://www.w3.org/2000/svg" viewBox="0 0 800 800" width="800" height="800">

  <defs>
    <radialGradient id="wood" cx="50%" cy="50%" r="50%">
      <stop offset="70%" stop-color="#4a2511" />
      <stop offset="100%" stop-color="#2a1205" />
    </radialGradient>
    <radialGradient id="gold" cx="50%" cy="50%" r="50%">
      <stop offset="0%" stop-color="#fff1a0" />
      <stop offset="50%" stop-color="#d4af37" />
      <stop offset="100%" stop-color="#aa7c11" />
    </radialGradient>
    <radialGradient id="inner-gold" cx="50%" cy="50%" r="50%">
      <stop offset="0%" stop-color="#f8e58c" />
      <stop offset="80%" stop-color="#c19b2c" />
      <stop offset="100%" stop-color="#6b5311" />
    </radialGradient>
    <radialGradient id="center-bg" cx="50%" cy="50%" r="50%">
      <stop offset="0%" stop-color="#3a1b0a" />
      <stop offset="100%" stop-color="#1a0a02" />
    </radialGradient>
  </defs>

<circle cx="400.0" cy="400.0" r="390" fill="url(#wood)" stroke="#111" stroke-width="10"/>
<circle cx="400.0" cy="400.0" r="340" fill="none" stroke="url(#gold)" stroke-width="8"/>
<path d="M 372.01404492308194 71.18882878096628 A 330 330 0 0 1 427.98595507691795 71.18882878096628 L 417.8092441398569 190.75652740606944 A 210 210 0 0 0 382.19075586014304 190.75652740606944 Z" fill="#008a27" stroke="#d4af37" stroke-width="2"/>
<text x="400.0" y="130.0" font-family="Arial, sans-serif" font-weight="bold" font-size="28" fill="#fff" text-anchor="middle" dominant-baseline="middle" transform="rotate(0.0, 400.0, 130.0)">0</text>
<path d="M 382.19075586014304 190.75652740606944 A 210 210 0 0 1 417.8092441398569 190.75652740606944 L 414.41700716083653 230.6124269477705 A 170 170 0 0 0 385.5829928391634 230.6124269477705 Z" fill="#008a27" stroke="#222" stroke-width="1"/>
<line x1="385.5829928391634" y1="230.6124269477705" x2="382.19075586014304" y2="190.75652740606944" stroke="url(#gold)" stroke-width="3"/>
<path d="M 427.98595507691795 71.18882878096628 A 330 330 0 0 1 483.15276025709124 80.64812751194535 L 452.91539289087626 196.77608114396523 A 210 210 0 0 0 417.8092441398569 190.75652740606944 Z" fill="#d11111" stroke="#d4af37" stroke-width="2"/>
<text x="445.6302214868992" y="133.8837042061187" font-family="Arial, sans-serif" font-weight="bold" font-size="28" fill="#fff" text-anchor="middle" dominant-baseline="middle" transform="rotate(9.729729729729712, 445.6302214868992, 133.8837042061187)">32</text>
<path d="M 417.8092441398569 190.75652740606944 A 210 210 0 0 1 452.91539289087626 196.77608114396523 L 442.83627043547125 235.4853990213052 A 170 170 0 0 0 414.41700716083653 230.6124269477705 Z" fill="#d11111" stroke="#222" stroke-width="1"/>
<line x1="414.41700716083653" y1="230.6124269477705" x2="417.8092441398569" y2="190.75652740606944" stroke="url(#gold)" stroke-width="3"/>
<path d="M 483.15276025709124 80.64812751194535 A 330 330 0 0 1 535.9274119205176 99.2945981719152 L 486.4992621312384 208.64201701849152 A 210 210 0 0 0 452.91539289087626 196.77608114396523 Z" fill="#111111" stroke="#d4af37" stroke-width="2"/>
<text x="489.94774458035556" y="145.42308972550725" font-family="Arial, sans-serif" font-weight="bold" font-size="28" fill="#fff" text-anchor="middle" dominant-baseline="middle" transform="rotate(19.459459459459453, 489.94774458035556, 145.42308972550725)">15</text>
<path d="M 452.91539289087626 196.77608114396523 A 210 210 0 0 1 486.4992621312384 208.64201701849152 L 470.0232122014787 245.09115663401693 A 170 170 0 0 0 442.83627043547125 235.4853990213052 Z" fill="#111111" stroke="#222" stroke-width="1"/>
<line x1="442.83627043547125" y1="235.4853990213052" x2="452.91539289087626" y2="196.77608114396523" stroke="url(#gold)" stroke-width="3"/>
<path d="M 535.9274119205176 99.2945981719152 A 330 330 0 0 1 584.7916794254065 126.59181574953209 L 517.594705088895 226.01297365879316 A 210 210 0 0 0 486.4992621312384 208.64201701849152 Z" fill="#d11111" stroke="#d4af37" stroke-width="2"/>
<text x="531.6776348296813" y="164.2861894464792" font-family="Arial, sans-serif" font-weight="bold" font-size="28" fill="#fff" text-anchor="middle" dominant-baseline="middle" transform="rotate(29.189189189189193, 531.6776348296813, 164.2861894464792)">19</text>
<path d="M 486.4992621312384 208.64201701849152 A 210 210 0 0 1 517.594705088895 226.01297365879316 L 495.19571364339123 259.1533596285468 A 170 170 0 0 0 470.0232122014787 245.09115663401693 Z" fill="#d11111" stroke="#222" stroke-width="1"/>
<line x1="470.0232122014787" y1="245.09115663401693" x2="486.4992621312384" y2="208.64201701849152" stroke="url(#gold)" stroke-width="3"/>
<path d="M 584.7916794254065 126.59181574953209 A 330 330 0 0 1 628.3398267625903 161.7544889950069 L 545.3071624852847 248.38922026954984 A 210 210 0 0 0 517.594705088895 226.01297365879316 Z" fill="#111111" stroke="#d4af37" stroke-width="2"/>
<text x="569.6193992698235" y="189.93034633402132" font-family="Arial, sans-serif" font-weight="bold" font-size="28" fill="#fff" text-anchor="middle" dominant-baseline="middle" transform="rotate(38.91891891891892, 569.6193992698235, 189.93034633402132)">4</text>
<path d="M 517.594705088895 226.01297365879316 A 210 210 0 0 1 545.3071624852847 248.38922026954984 L 517.6296077261828 277.26746402773085 A 170 170 0 0 0 495.19571364339123 259.1533596285468 Z" fill="#111111" stroke="#222" stroke-width="1"/>
<line x1="495.19571364339123" y1="259.1533596285468" x2="517.594705088895" y2="226.01297365879316" stroke="url(#gold)" stroke-width="3"/>
<path d="M 628.3398267625903 161.7544889950069 A 330 330 0 0 1 665.3190530210904 203.77105181958544 L 568.8393973770575 275.1270329760998 A 210 210 0 0 0 545.3071624852847 248.38922026954984 Z" fill="#d11111" stroke="#d4af37" stroke-width="2"/>
<text x="602.6815224182355" y="221.617824684678" font-family="Arial, sans-serif" font-weight="bold" font-size="28" fill="#fff" text-anchor="middle" dominant-baseline="middle" transform="rotate(48.648648648648646, 602.6815224182355, 221.617824684678)">21</text>
<path d="M 545.3071624852847 248.38922026954984 A 210 210 0 0 1 568.8393973770575 275.1270329760998 L 536.6795121623799 298.9123600282713 A 170 170 0 0 0 517.6296077261828 277.26746402773085 Z" fill="#d11111" stroke="#222" stroke-width="1"/>
<line x1="517.6296077261828" y1="277.26746402773085" x2="545.3071624852847" y2="248.38922026954984" stroke="url(#gold)" stroke-width="3"/>
<path d="M 665.3190530210904 203.77105181958544 A 330 330 0 0 1 694.6655331893576 251.43276421016785 L 587.5144302114094 305.45721358828865 A 210 210 0 0 0 568.8393973770575 275.1270329760998 Z" fill="#111111" stroke="#d4af37" stroke-width="2"/>
<text x="629.912867187994" y="258.43703343954746" font-family="Arial, sans-serif" font-weight="bold" font-size="28" fill="#fff" text-anchor="middle" dominant-baseline="middle" transform="rotate(58.378378378378386, 629.912867187994, 258.43703343954746)">2</text>
<path d="M 568.8393973770575 275.1270329760998 A 210 210 0 0 1 587.5144302114094 305.45721358828865 L 551.7973958854267 323.46536338099554 A 170 170 0 0 0 536.6795121623799 298.9123600282713 Z" fill="#111111" stroke="#222" stroke-width="1"/>
<line x1="536.6795121623799" y1="298.9123600282713" x2="568.8393973770575" y2="275.1270329760998" stroke="url(#gold)" stroke-width="3"/>
<path d="M 694.6655331893576 251.43276421016785 A 330 330 0 0 1 715.5350224639528 303.3684854787384 L 600.7950142952427 338.5072180319244 A 210 210 0 0 0 587.5144302114094 305.45721358828865 Z" fill="#d11111" stroke="#d4af37" stroke-width="2"/>
<text x="650.5300373700575" y="299.3287509993167" font-family="Arial, sans-serif" font-weight="bold" font-size="28" fill="#fff" text-anchor="middle" dominant-baseline="middle" transform="rotate(68.10810810810811, 650.5300373700575, 299.3287509993167)">25</text>
<path d="M 587.5144302114094 305.45721358828865 A 210 210 0 0 1 600.7950142952427 338.5072180319244 L 562.5483449056726 350.22012888298644 A 170 170 0 0 0 551.7973958854267 323.46536338099554 Z" fill="#d11111" stroke="#222" stroke-width="1"/>
<line x1="551.7973958854267" y1="323.46536338099554" x2="587.5144302114094" y2="305.45721358828865" stroke="url(#gold)" stroke-width="3"/>
<path d="M 715.5350224639528 303.3684854787384 A 330 330 0 0 1 727.3271436354294 358.08411948353 L 608.2990914043642 373.3262578531554 A 210 210 0 0 0 600.7950142952427 338.5072180319244 Z" fill="#111111" stroke="#d4af37" stroke-width="2"/>
<text x="663.9399145158752" y="343.1165971011539" font-family="Arial, sans-serif" font-weight="bold" font-size="28" fill="#fff" text-anchor="middle" dominant-baseline="middle" transform="rotate(77.83783783783784, 663.9399145158752, 343.1165971011539)">17</text>
<path d="M 600.7950142952427 338.5072180319244 A 210 210 0 0 1 608.2990914043642 373.3262578531554 L 568.623073994009 378.4069706430306 A 170 170 0 0 0 562.5483449056726 350.22012888298644 Z" fill="#111111" stroke="#222" stroke-width="1"/>
<line x1="562.5483449056726" y1="350.22012888298644" x2="600.7950142952427" y2="338.5072180319244" stroke="url(#gold)" stroke-width="3"/>
<path d="M 727.3271436354294 358.08411948353 A 330 330 0 0 1 729.7026588475449 414.0055970547289 L 609.8107829029831 408.9126526711911 A 210 210 0 0 0 608.2990914043642 373.3262578531554 Z" fill="#d11111" stroke="#d4af37" stroke-width="2"/>
<text x="669.7567208752639" y="388.54087513703996" font-family="Arial, sans-serif" font-weight="bold" font-size="28" fill="#fff" text-anchor="middle" dominant-baseline="middle" transform="rotate(87.56756756756756, 669.7567208752639, 388.54087513703996)">34</text>
<path d="M 608.2990914043642 373.3262578531554 A 210 210 0 0 1 609.8107829029831 408.9126526711911 L 569.8468242547958 407.2150045433452 A 170 170 0 0 0 568.623073994009 378.4069706430306 Z" fill="#d11111" stroke="#222" stroke-width="1"/>
<line x1="568.623073994009" y1="378.4069706430306" x2="608.2990914043642" y2="373.3262578531554" stroke="url(#gold)" stroke-width="3"/>
<path d="M 729.7026588475449 414.0055970547289 A 330 330 0 0 1 722.5932288527365 469.52415909858973 L 605.2866001790142 444.2426466991025 A 210 210 0 0 0 609.8107829029831 408.9126526711911 Z" fill="#111111" stroke="#d4af37" stroke-width="2"/>
<text x="667.8131175198968" y="434.29481133165723" font-family="Arial, sans-serif" font-weight="bold" font-size="28" fill="#fff" text-anchor="middle" dominant-baseline="middle" transform="rotate(97.29729729729729, 667.8131175198968, 434.29481133165723)">6</text>
<path d="M 609.8107829029831 408.9126526711911 A 210 210 0 0 1 605.2866001790142 444.2426466991025 L 566.1843906211067 435.8154758992735 A 170 170 0 0 0 569.8468242547958 407.2150045433452 Z" fill="#111111" stroke="#222" stroke-width="1"/>
<line x1="569.8468242547958" y1="407.2150045433452" x2="609.8107829029831" y2="408.9126526711911" stroke="url(#gold)" stroke-width="3"/>
<path d="M 722.5932288527365 469.52415909858973 A 330 330 0 0 1 706.2033790078481 523.0426376675018 L 594.856695732267 478.2998603338648 A 210 210 0 0 0 605.2866001790142 444.2426466991025 Z" fill="#d11111" stroke="#d4af37" stroke-width="2"/>
<text x="658.1650183795978" y="479.0621482446686" font-family="Arial, sans-serif" font-weight="bold" font-size="28" fill="#fff" text-anchor="middle" dominant-baseline="middle" transform="rotate(107.02702702702703, 658.1650183795978, 479.0621482446686)">27</text>
<path d="M 605.2866001790142 444.2426466991025 A 210 210 0 0 1 594.856695732267 478.2998603338648 L 557.7411346404066 463.38560122265244 A 170 170 0 0 0 566.1843906211067 435.8154758992735 Z" fill="#d11111" stroke="#222" stroke-width="1"/>
<line x1="566.1843906211067" y1="435.8154758992735" x2="605.2866001790142" y2="444.2426466991025" stroke="url(#gold)" stroke-width="3"/>
<path d="M 706.2033790078481 523.0426376675018 A 330 330 0 0 1 681.0046154519928 573.0214035738865 L 578.8211189239954 510.1045295470186 A 210 210 0 0 0 594.856695732267 478.2998603338648 Z" fill="#111111" stroke="#d4af37" stroke-width="2"/>
<text x="641.0899817003835" y="521.5550111007718" font-family="Arial, sans-serif" font-weight="bold" font-size="28" fill="#fff" text-anchor="middle" dominant-baseline="middle" transform="rotate(116.75675675675676, 641.0899817003835, 521.5550111007718)">13</text>
<path d="M 594.856695732267 478.2998603338648 A 210 210 0 0 1 578.8211189239954 510.1045295470186 L 544.759953414663 489.1322382047294 A 170 170 0 0 0 557.7411346404066 463.38560122265244 Z" fill="#111111" stroke="#222" stroke-width="1"/>
<line x1="557.7411346404066" y1="463.38560122265244" x2="594.856695732267" y2="478.2998603338648" stroke="url(#gold)" stroke-width="3"/>
<path d="M 681.0046154519928 573.0214035738865 A 330 330 0 0 1 647.721860733399 618.0226587187269 L 557.6411841030721 538.7416919119171 A 210 210 0 0 0 578.8211189239954 510.1045295470186 Z" fill="#d11111" stroke="#d4af37" stroke-width="2"/>
<text x="617.0792251990739" y="560.5509576021574" font-family="Arial, sans-serif" font-weight="bold" font-size="28" fill="#fff" text-anchor="middle" dominant-baseline="middle" transform="rotate(126.48648648648648, 617.0792251990739, 560.5509576021574)">36</text>
<path d="M 578.8211189239954 510.1045295470186 A 210 210 0 0 1 557.6411841030721 538.7416919119171 L 527.6142918929631 512.3147029763138 A 170 170 0 0 0 544.759953414663 489.1322382047294 Z" fill="#d11111" stroke="#222" stroke-width="1"/>
<line x1="544.759953414663" y1="489.1322382047294" x2="578.8211189239954" y2="510.1045295470186" stroke="url(#gold)" stroke-width="3"/>
<path d="M 647.721860733399 618.0226587187269 A 330 330 0 0 1 607.3125991075619 656.751798925085 L 531.9261994320849 563.3875084068723 A 210 210 0 0 0 557.6411841030721 538.7416919119171 Z" fill="#111111" stroke="#d4af37" stroke-width="2"/>
<text x="586.8234946239374" y="594.9281453677216" font-family="Arial, sans-serif" font-weight="bold" font-size="28" fill="#fff" text-anchor="middle" dominant-baseline="middle" transform="rotate(136.21621621621622, 586.8234946239374, 594.9281453677216)">11</text>
<path d="M 557.6411841030721 538.7416919119171 A 210 210 0 0 1 531.9261994320849 563.3875084068723 L 506.7973995402592 532.2660782341347 A 170 170 0 0 0 527.6142918929631 512.3147029763138 Z" fill="#111111" stroke="#222" stroke-width="1"/>
<line x1="527.6142918929631" y1="512.3147029763138" x2="557.6411841030721" y2="538.7416919119171" stroke="url(#gold)" stroke-width="3"/>
<path d="M 607.3125991075619 656.751798925085 A 330 330 0 0 1 560.9393314584994 688.0946573431921 L 502.41593820086325 583.3329637638495 A 210 210 0 0 0 531.9261994320849 563.3875084068723 Z" fill="#d11111" stroke="#d4af37" stroke-width="2"/>
<text x="551.1931922571507" y="623.6976052958373" font-family="Arial, sans-serif" font-weight="bold" font-size="28" fill="#fff" text-anchor="middle" dominant-baseline="middle" transform="rotate(145.94594594594594, 551.1931922571507, 623.6976052958373)">30</text>
<path d="M 531.9261994320849 563.3875084068723 A 210 210 0 0 1 502.41593820086325 583.3329637638495 L 482.90814044831785 548.412399237402 A 170 170 0 0 0 506.7973995402592 532.2660782341347 Z" fill="#d11111" stroke="#222" stroke-width="1"/>
<line x1="506.7973995402592" y1="532.2660782341347" x2="531.9261994320849" y2="563.3875084068723" stroke="url(#gold)" stroke-width="3"/>
<path d="M 560.9393314584994 688.0946573431921 A 330 330 0 0 1 509.936132264879 711.1495570021577 L 469.95935689583206 598.0042635468277 A 210 210 0 0 0 502.41593820086325 583.3329637638495 Z" fill="#111111" stroke="#d4af37" stroke-width="2"/>
<text x="511.213337025878" y="646.0316924047967" font-family="Arial, sans-serif" font-weight="bold" font-size="28" fill="#fff" text-anchor="middle" dominant-baseline="middle" transform="rotate(155.67567567567568, 511.213337025878, 646.0316924047967)">8</text>
<path d="M 502.41593820086325 583.3329637638495 A 210 210 0 0 1 469.95935689583206 598.0042635468277 L 456.6337651061498 560.2891657283843 A 170 170 0 0 0 482.90814044831785 548.412399237402 Z" fill="#111111" stroke="#222" stroke-width="1"/>
<line x1="482.90814044831785" y1="548.412399237402" x2="502.41593820086325" y2="583.3329637638495" stroke="url(#gold)" stroke-width="3"/>
<path d="M 509.936132264879 711.1495570021577 A 330 330 0 0 1 455.7702707062103 725.2532504147438 L 435.4901722675884 606.9793411730188 A 210 210 0 0 0 469.95935689583206 598.0042635468277 Z" fill="#d11111" stroke="#d4af37" stroke-width="2"/>
<text x="468.0340765739838" y="661.2878956720447" font-family="Arial, sans-serif" font-weight="bold" font-size="28" fill="#fff" text-anchor="middle" dominant-baseline="middle" transform="rotate(165.40540540540542, 468.0340765739838, 661.2878956720447)">23</text>
<path d="M 469.95935689583206 598.0042635468277 A 210 210 0 0 1 435.4901722675884 606.9793411730188 L 428.7301394547144 567.5547047591105 A 170 170 0 0 0 456.6337651061498 560.2891657283843 Z" fill="#d11111" stroke="#222" stroke-width="1"/>
<line x1="456.6337651061498" y1="560.2891657283843" x2="469.95935689583206" y2="598.0042635468277" stroke="url(#gold)" stroke-width="3"/>
<path d="M 455.7702707062103 725.2532504147438 A 330 330 0 0 1 400.0 730.0 L 400.0 610.0 A 210 210 0 0 0 435.4901722675884 606.9793411730188 Z" fill="#111111" stroke="#d4af37" stroke-width="2"/>
<text x="422.8975996083875" y="669.0273219064821" font-family="Arial, sans-serif" font-weight="bold" font-size="28" fill="#fff" text-anchor="middle" dominant-baseline="middle" transform="rotate(175.13513513513513, 422.8975996083875, 669.0273219064821)">10</text>
<path d="M 435.4901722675884 606.9793411730188 A 210 210 0 0 1 400.0 610.0 L 400.0 570.0 A 170 170 0 0 0 428.7301394547144 567.5547047591105 Z" fill="#111111" stroke="#222" stroke-width="1"/>
<line x1="428.7301394547144" y1="567.5547047591105" x2="435.4901722675884" y2="606.9793411730188" stroke="url(#gold)" stroke-width="3"/>
<path d="M 400.0 730.0 A 330 330 0 0 1 344.2297292937899 725.2532504147439 L 364.50982773241174 606.9793411730188 A 210 210 0 0 0 400.0 610.0 Z" fill="#d11111" stroke="#d4af37" stroke-width="2"/>
<text x="377.10240039161255" y="669.0273219064821" font-family="Arial, sans-serif" font-weight="bold" font-size="28" fill="#fff" text-anchor="middle" dominant-baseline="middle" transform="rotate(184.86486486486484, 377.10240039161255, 669.0273219064821)">5</text>
<path d="M 400.0 610.0 A 210 210 0 0 1 364.50982773241174 606.9793411730188 L 371.2698605452857 567.5547047591105 A 170 170 0 0 0 400.0 570.0 Z" fill="#d11111" stroke="#222" stroke-width="1"/>
<line x1="400.0" y1="570.0" x2="400.0" y2="610.0" stroke="url(#gold)" stroke-width="3"/>
<path d="M 344.2297292937899 725.2532504147439 A 330 330 0 0 1 290.06386773512105 711.1495570021577 L 330.04064310416794 598.0042635468277 A 210 210 0 0 0 364.50982773241174 606.9793411730188 Z" fill="#111111" stroke="#d4af37" stroke-width="2"/>
<text x="331.9659234260163" y="661.2878956720447" font-family="Arial, sans-serif" font-weight="bold" font-size="28" fill="#fff" text-anchor="middle" dominant-baseline="middle" transform="rotate(194.59459459459458, 331.9659234260163, 661.2878956720447)">24</text>
<path d="M 364.50982773241174 606.9793411730188 A 210 210 0 0 1 330.04064310416794 598.0042635468277 L 343.3662348938502 560.2891657283843 A 170 170 0 0 0 371.2698605452857 567.5547047591105 Z" fill="#111111" stroke="#222" stroke-width="1"/>
<line x1="371.2698605452857" y1="567.5547047591105" x2="364.50982773241174" y2="606.9793411730188" stroke="url(#gold)" stroke-width="3"/>
<path d="M 290.06386773512105 711.1495570021577 A 330 330 0 0 1 239.06066854150055 688.094657343192 L 297.5840617991367 583.3329637638494 A 210 210 0 0 0 330.04064310416794 598.0042635468277 Z" fill="#d11111" stroke="#d4af37" stroke-width="2"/>
<text x="288.786662974122" y="646.0316924047967" font-family="Arial, sans-serif" font-weight="bold" font-size="28" fill="#fff" text-anchor="middle" dominant-baseline="middle" transform="rotate(204.32432432432432, 288.786662974122, 646.0316924047967)">16</text>
<path d="M 330.04064310416794 598.0042635468277 A 210 210 0 0 1 297.5840617991367 583.3329637638494 L 317.0918595516821 548.4123992374019 A 170 170 0 0 0 343.3662348938502 560.2891657283843 Z" fill="#d11111" stroke="#222" stroke-width="1"/>
<line x1="343.3662348938502" y1="560.2891657283843" x2="330.04064310416794" y2="598.0042635468277" stroke="url(#gold)" stroke-width="3"/>
<path d="M 239.06066854150055 688.094657343192 A 330 330 0 0 1 192.68740089243812 656.751798925085 L 268.0738005679152 563.3875084068724 A 210 210 0 0 0 297.5840617991367 583.3329637638494 Z" fill="#111111" stroke="#d4af37" stroke-width="2"/>
<text x="248.80680774284926" y="623.6976052958373" font-family="Arial, sans-serif" font-weight="bold" font-size="28" fill="#fff" text-anchor="middle" dominant-baseline="middle" transform="rotate(214.05405405405406, 248.80680774284926, 623.6976052958373)">33</text>
<path d="M 297.5840617991367 583.3329637638494 A 210 210 0 0 1 268.0738005679152 563.3875084068724 L 293.20260045974084 532.2660782341347 A 170 170 0 0 0 317.0918595516821 548.4123992374019 Z" fill="#111111" stroke="#222" stroke-width="1"/>
<line x1="317.0918595516821" y1="548.4123992374019" x2="297.5840617991367" y2="583.3329637638494" stroke="url(#gold)" stroke-width="3"/>
<path d="M 192.68740089243812 656.751798925085 A 330 330 0 0 1 152.27813926660096 618.0226587187269 L 242.3588158969279 538.7416919119171 A 210 210 0 0 0 268.0738005679152 563.3875084068724 Z" fill="#d11111" stroke="#d4af37" stroke-width="2"/>
<text x="213.17650537606255" y="594.9281453677216" font-family="Arial, sans-serif" font-weight="bold" font-size="28" fill="#fff" text-anchor="middle" dominant-baseline="middle" transform="rotate(223.78378378378378, 213.17650537606255, 594.9281453677216)">1</text>
<path d="M 268.0738005679152 563.3875084068724 A 210 210 0 0 1 242.3588158969279 538.7416919119171 L 272.38570810703686 512.3147029763138 A 170 170 0 0 0 293.20260045974084 532.2660782341347 Z" fill="#d11111" stroke="#222" stroke-width="1"/>
<line x1="293.20260045974084" y1="532.2660782341347" x2="268.0738005679152" y2="563.3875084068724" stroke="url(#gold)" stroke-width="3"/>
<path d="M 152.27813926660096 618.0226587187269 A 330 330 0 0 1 118.99538454800728 573.0214035738865 L 221.17888107600461 510.1045295470186 A 210 210 0 0 0 242.3588158969279 538.7416919119171 Z" fill="#111111" stroke="#d4af37" stroke-width="2"/>
<text x="182.9207748009261" y="560.5509576021575" font-family="Arial, sans-serif" font-weight="bold" font-size="28" fill="#fff" text-anchor="middle" dominant-baseline="middle" transform="rotate(233.51351351351352, 182.9207748009261, 560.5509576021575)">20</text>
<path d="M 242.3588158969279 538.7416919119171 A 210 210 0 0 1 221.17888107600461 510.1045295470186 L 255.24004658533707 489.1322382047294 A 170 170 0 0 0 272.38570810703686 512.3147029763138 Z" fill="#111111" stroke="#222" stroke-width="1"/>
<line x1="272.38570810703686" y1="512.3147029763138" x2="242.3588158969279" y2="538.7416919119171" stroke="url(#gold)" stroke-width="3"/>
<path d="M 118.99538454800728 573.0214035738865 A 330 330 0 0 1 93.79662099215193 523.0426376675018 L 205.14330426773304 478.2998603338648 A 210 210 0 0 0 221.17888107600461 510.1045295470186 Z" fill="#d11111" stroke="#d4af37" stroke-width="2"/>
<text x="158.91001829961655" y="521.5550111007718" font-family="Arial, sans-serif" font-weight="bold" font-size="28" fill="#fff" text-anchor="middle" dominant-baseline="middle" transform="rotate(243.24324324324323, 158.91001829961655, 521.5550111007718)">14</text>
<path d="M 221.17888107600461 510.1045295470186 A 210 210 0 0 1 205.14330426773304 478.2998603338648 L 242.25886535959341 463.3856012226525 A 170 170 0 0 0 255.24004658533707 489.1322382047294 Z" fill="#d11111" stroke="#222" stroke-width="1"/>
<line x1="255.24004658533707" y1="489.1322382047294" x2="221.17888107600461" y2="510.1045295470186" stroke="url(#gold)" stroke-width="3"/>
<path d="M 93.79662099215193 523.0426376675018 A 330 330 0 0 1 77.40677114726356 469.52415909858973 L 194.7133998209859 444.2426466991026 A 210 210 0 0 0 205.14330426773304 478.2998603338648 Z" fill="#111111" stroke="#d4af37" stroke-width="2"/>
<text x="141.8349816204023" y="479.0621482446687" font-family="Arial, sans-serif" font-weight="bold" font-size="28" fill="#fff" text-anchor="middle" dominant-baseline="middle" transform="rotate(252.97297297297297, 141.8349816204023, 479.0621482446687)">31</text>
<path d="M 205.14330426773304 478.2998603338648 A 210 210 0 0 1 194.7133998209859 444.2426466991026 L 233.81560937889336 435.8154758992735 A 170 170 0 0 0 242.25886535959341 463.3856012226525 Z" fill="#111111" stroke="#222" stroke-width="1"/>
<line x1="242.25886535959341" y1="463.3856012226525" x2="205.14330426773304" y2="478.2998603338648" stroke="url(#gold)" stroke-width="3"/>
<path d="M 77.40677114726356 469.52415909858973 A 330 330 0 0 1 70.29734115245509 414.00559705472887 L 190.1892170970169 408.9126526711911 A 210 210 0 0 0 194.7133998209859 444.2426466991026 Z" fill="#d11111" stroke="#d4af37" stroke-width="2"/>
<text x="132.18688248010324" y="434.29481133165723" font-family="Arial, sans-serif" font-weight="bold" font-size="28" fill="#fff" text-anchor="middle" dominant-baseline="middle" transform="rotate(262.7027027027027, 132.18688248010324, 434.29481133165723)">9</text>
<path d="M 194.7133998209859 444.2426466991026 A 210 210 0 0 1 190.1892170970169 408.9126526711911 L 230.15317574520415 407.2150045433452 A 170 170 0 0 0 233.81560937889336 435.8154758992735 Z" fill="#d11111" stroke="#222" stroke-width="1"/>
<line x1="233.81560937889336" y1="435.8154758992735" x2="194.7133998209859" y2="444.2426466991026" stroke="url(#gold)" stroke-width="3"/>
<path d="M 70.29734115245509 414.00559705472887 A 330 330 0 0 1 72.67285636457063 358.08411948352995 L 191.70090859563587 373.3262578531554 A 210 210 0 0 0 190.1892170970169 408.9126526711911 Z" fill="#111111" stroke="#d4af37" stroke-width="2"/>
<text x="130.24327912473603" y="388.54087513703985" font-family="Arial, sans-serif" font-weight="bold" font-size="28" fill="#fff" text-anchor="middle" dominant-baseline="middle" transform="rotate(272.43243243243245, 130.24327912473603, 388.54087513703985)">22</text>
<path d="M 190.1892170970169 408.9126526711911 A 210 210 0 0 1 191.70090859563587 373.3262578531554 L 231.37692600599092 378.4069706430306 A 170 170 0 0 0 230.15317574520415 407.2150045433452 Z" fill="#111111" stroke="#222" stroke-width="1"/>
<line x1="230.15317574520415" y1="407.2150045433452" x2="190.1892170970169" y2="408.9126526711911" stroke="url(#gold)" stroke-width="3"/>
<path d="M 72.67285636457063 358.08411948352995 A 330 330 0 0 1 84.46497753604717 303.3684854787385 L 199.20498570475726 338.5072180319245 A 210 210 0 0 0 191.70090859563587 373.3262578531554 Z" fill="#d11111" stroke="#d4af37" stroke-width="2"/>
<text x="136.06008548412473" y="343.1165971011539" font-family="Arial, sans-serif" font-weight="bold" font-size="28" fill="#fff" text-anchor="middle" dominant-baseline="middle" transform="rotate(282.1621621621622, 136.06008548412473, 343.1165971011539)">18</text>
<path d="M 191.70090859563587 373.3262578531554 A 210 210 0 0 1 199.20498570475726 338.5072180319245 L 237.45165509432732 350.2201288829865 A 170 170 0 0 0 231.37692600599092 378.4069706430306 Z" fill="#d11111" stroke="#222" stroke-width="1"/>
<line x1="231.37692600599092" y1="378.4069706430306" x2="191.70090859563587" y2="373.3262578531554" stroke="url(#gold)" stroke-width="3"/>
<path d="M 84.46497753604717 303.3684854787385 A 330 330 0 0 1 105.33446681064231 251.43276421016793 L 212.48556978859057 305.4572135882887 A 210 210 0 0 0 199.20498570475726 338.5072180319245 Z" fill="#111111" stroke="#d4af37" stroke-width="2"/>
<text x="149.46996262994247" y="299.32875099931675" font-family="Arial, sans-serif" font-weight="bold" font-size="28" fill="#fff" text-anchor="middle" dominant-baseline="middle" transform="rotate(291.8918918918919, 149.46996262994247, 299.32875099931675)">29</text>
<path d="M 199.20498570475726 338.5072180319245 A 210 210 0 0 1 212.48556978859057 305.4572135882887 L 248.20260411457332 323.4653633809956 A 170 170 0 0 0 237.45165509432732 350.2201288829865 Z" fill="#111111" stroke="#222" stroke-width="1"/>
<line x1="237.45165509432732" y1="350.2201288829865" x2="199.20498570475726" y2="338.5072180319245" stroke="url(#gold)" stroke-width="3"/>
<path d="M 105.33446681064231 251.43276421016793 A 330 330 0 0 1 134.68094697890962 203.77105181958544 L 231.1606026229425 275.1270329760998 A 210 210 0 0 0 212.48556978859057 305.4572135882887 Z" fill="#d11111" stroke="#d4af37" stroke-width="2"/>
<text x="170.08713281200593" y="258.4370334395475" font-family="Arial, sans-serif" font-weight="bold" font-size="28" fill="#fff" text-anchor="middle" dominant-baseline="middle" transform="rotate(301.6216216216216, 170.08713281200593, 258.4370334395475)">7</text>
<path d="M 212.48556978859057 305.4572135882887 A 210 210 0 0 1 231.1606026229425 275.1270329760998 L 263.32048783762013 298.9123600282713 A 170 170 0 0 0 248.20260411457332 323.4653633809956 Z" fill="#d11111" stroke="#222" stroke-width="1"/>
<line x1="248.20260411457332" y1="323.4653633809956" x2="212.48556978859057" y2="305.4572135882887" stroke="url(#gold)" stroke-width="3"/>
<path d="M 134.68094697890962 203.77105181958544 A 330 330 0 0 1 171.6601732374097 161.75448899500694 L 254.69283751471528 248.38922026954987 A 210 210 0 0 0 231.1606026229425 275.1270329760998 Z" fill="#111111" stroke="#d4af37" stroke-width="2"/>
<text x="197.31847758176443" y="221.61782468467797" font-family="Arial, sans-serif" font-weight="bold" font-size="28" fill="#fff" text-anchor="middle" dominant-baseline="middle" transform="rotate(311.35135135135135, 197.31847758176443, 221.61782468467797)">28</text>
<path d="M 231.1606026229425 275.1270329760998 A 210 210 0 0 1 254.69283751471528 248.38922026954987 L 282.3703922738171 277.26746402773085 A 170 170 0 0 0 263.32048783762013 298.9123600282713 Z" fill="#111111" stroke="#222" stroke-width="1"/>
<line x1="263.32048783762013" y1="298.9123600282713" x2="231.1606026229425" y2="275.1270329760998" stroke="url(#gold)" stroke-width="3"/>
<path d="M 171.6601732374097 161.75448899500694 A 330 330 0 0 1 215.20832057459359 126.59181574953203 L 282.405294911105 226.01297365879313 A 210 210 0 0 0 254.69283751471528 248.38922026954987 Z" fill="#d11111" stroke="#d4af37" stroke-width="2"/>
<text x="230.38060073017658" y="189.93034633402132" font-family="Arial, sans-serif" font-weight="bold" font-size="28" fill="#fff" text-anchor="middle" dominant-baseline="middle" transform="rotate(321.0810810810811, 230.38060073017658, 189.93034633402132)">12</text>
<path d="M 254.69283751471528 248.38922026954987 A 210 210 0 0 1 282.405294911105 226.01297365879313 L 304.8042863566088 259.1533596285468 A 170 170 0 0 0 282.3703922738171 277.26746402773085 Z" fill="#d11111" stroke="#222" stroke-width="1"/>
<line x1="282.3703922738171" y1="277.26746402773085" x2="254.69283751471528" y2="248.38922026954987" stroke="url(#gold)" stroke-width="3"/>
<path d="M 215.20832057459359 126.59181574953203 A 330 330 0 0 1 264.07258807948233 99.29459817191525 L 313.50073786876146 208.64201701849152 A 210 210 0 0 0 282.405294911105 226.01297365879313 Z" fill="#111111" stroke="#d4af37" stroke-width="2"/>
<text x="268.32236517031856" y="164.28618944647926" font-family="Arial, sans-serif" font-weight="bold" font-size="28" fill="#fff" text-anchor="middle" dominant-baseline="middle" transform="rotate(330.81081081081084, 268.32236517031856, 164.28618944647926)">35</text>
<path d="M 282.405294911105 226.01297365879313 A 210 210 0 0 1 313.50073786876146 208.64201701849152 L 329.97678779852123 245.09115663401695 A 170 170 0 0 0 304.8042863566088 259.1533596285468 Z" fill="#111111" stroke="#222" stroke-width="1"/>
<line x1="304.8042863566088" y1="259.1533596285468" x2="282.405294911105" y2="226.01297365879313" stroke="url(#gold)" stroke-width="3"/>
<path d="M 264.07258807948233 99.29459817191525 A 330 330 0 0 1 316.84723974290847 80.64812751194546 L 347.08460710912357 196.77608114396529 A 210 210 0 0 0 313.50073786876146 208.64201701849152 Z" fill="#d11111" stroke="#d4af37" stroke-width="2"/>
<text x="310.05225541964444" y="145.42308972550728" font-family="Arial, sans-serif" font-weight="bold" font-size="28" fill="#fff" text-anchor="middle" dominant-baseline="middle" transform="rotate(340.5405405405405, 310.05225541964444, 145.42308972550728)">3</text>
<path d="M 313.50073786876146 208.64201701849152 A 210 210 0 0 1 347.08460710912357 196.77608114396529 L 357.1637295645286 235.48539902130523 A 170 170 0 0 0 329.97678779852123 245.09115663401695 Z" fill="#d11111" stroke="#222" stroke-width="1"/>
<line x1="329.97678779852123" y1="245.09115663401695" x2="313.50073786876146" y2="208.64201701849152" stroke="url(#gold)" stroke-width="3"/>
<path d="M 316.84723974290847 80.64812751194546 A 330 330 0 0 1 372.0140449230821 71.18882878096628 L 382.19075586014316 190.75652740606944 A 210 210 0 0 0 347.08460710912357 196.77608114396529 Z" fill="#111111" stroke="#d4af37" stroke-width="2"/>
<text x="354.3697785131006" y="133.88370420611875" font-family="Arial, sans-serif" font-weight="bold" font-size="28" fill="#fff" text-anchor="middle" dominant-baseline="middle" transform="rotate(350.27027027027026, 354.3697785131006, 133.88370420611875)">26</text>
<path d="M 347.08460710912357 196.77608114396529 A 210 210 0 0 1 382.19075586014316 190.75652740606944 L 385.5829928391635 230.6124269477705 A 170 170 0 0 0 357.1637295645286 235.48539902130523 Z" fill="#111111" stroke="#222" stroke-width="1"/>
<line x1="357.1637295645286" y1="235.48539902130523" x2="347.08460710912357" y2="196.77608114396529" stroke="url(#gold)" stroke-width="3"/>
<circle cx="400.0" cy="400.0" r="170" fill="url(#center-bg)" stroke="url(#gold)" stroke-width="6"/>
<circle cx="400.0" cy="400.0" r="60" fill="url(#gold)" />
<circle cx="400.0" cy="400.0" r="40" fill="url(#inner-gold)" />
<circle cx="400.0" cy="400.0" r="20" fill="#f8e58c" />
<line x1="420.0" y1="400.0" x2="530.0" y2="400.0" stroke="url(#gold)" stroke-width="12" stroke-linecap="round"/>
<circle cx="530.0" cy="400.0" r="8" fill="#fff1a0" />
<line x1="400.0" y1="420.0" x2="400.0" y2="530.0" stroke="url(#gold)" stroke-width="12" stroke-linecap="round"/>
<circle cx="400.0" cy="530.0" r="8" fill="#fff1a0" />
<line x1="380.0" y1="400.0" x2="270.0" y2="400.0" stroke="url(#gold)" stroke-width="12" stroke-linecap="round"/>
<circle cx="270.0" cy="400.0" r="8" fill="#fff1a0" />
<line x1="400.0" y1="380.0" x2="400.0" y2="270.0" stroke="url(#gold)" stroke-width="12" stroke-linecap="round"/>
<circle cx="400.0" cy="270.0" r="8" fill="#fff1a0" />
</svg>